# xmcd
#
# Track frame offsets:
#	150
#	18279
#	40281
#	59943
#	78237
#	95365
#	114048
#	128655
#	150163
#	168800
#
# Disc length: 2490 seconds
#
# Revision: 1
# Processed by: cddbd v1.5.2PL0 Copyright (c) Steve Scherf et al.
# Submitted via: EZCDAudioConverter 1.0.1.1
#
DISCID=6909b80a
DTITLE=郭靜 - 我們都能幸福著
DYEAR=2012
DGENRE=Pop
TTITLE0=像我這樣
TTITLE1=回憶的閣樓
TTITLE2=別去問他好嗎
TTITLE3=謝謝你告訴我
TTITLE4=Du Du好
TTITLE5=單身美好
TTITLE6=隨意
TTITLE7=放下
TTITLE8=我們都能幸福著
TTITLE9=擁抱你的微笑
EXTD=
EXTT0=
EXTT1=
EXTT2=
EXTT3=
EXTT4=
EXTT5=
EXTT6=
EXTT7=
EXTT8=
EXTT9=
PLAYORDER=
